# xmcd CD database file
#
# Track frame offsets:
#	150
#	15445
#	32135
#	46041
#	70688
#	122750
#	155503
#	225660
#	258360
#	274917
#	291955
#	294595
#
# Disc length: 4564 seconds
#
# Revision: 0
# Processed by: cddbd v1.5.1PL2 Copyright (c) Steve Scherf et al.
# Submitted via: CDex 1.51
#
DISCID=a511d20c
DTITLE=Djabe - New Orleans+
DYEAR=2004
DGENRE=Jazz
TTITLE0=Ocean
TTITLE1=Visions
TTITLE2=Zulu
TTITLE3=Thuesday afternoon
TTITLE4=Barraguira
TTITLE5=Djole
TTITLE6=Distant dance
TTITLE7=Flying
TTITLE8=Bali waves
TTITLE9=Bali wind
TTITLE10=Reality show
TTITLE11=Medley (Mayombe - Vision after the rain - Final word)
EXTD=YEAR: 2004
EXTT0=
EXTT1=
EXTT2=
EXTT3=
EXTT4=
EXTT5=
EXTT6=
EXTT7=
EXTT8=
EXTT9=
EXTT10=
EXTT11=
PLAYORDER=
